{"asset":{"version":"2.0","generator":"BuildWise procedural realistic furniture asset pack"},"scene":0,"scenes":[{"nodes":[0,1,2,3,4,5,6,7]}],"nodes":[{"name":"fabric-mattress","mesh":0},{"name":"wood-platform","mesh":1},{"name":"fabric-headboard","mesh":2},{"name":"wood-left-rail","mesh":3},{"name":"wood-right-rail","mesh":4},{"name":"fabric-pillow-left","mesh":5},{"name":"fabric-pillow-right","mesh":6},{"name":"fabric-throw","mesh":7}],"meshes":[{"name":"fabric-mattress","primitives":[{"attributes":{"POSITION":0,"NORMAL":1,"TEXCOORD_0":2},"indices":3,"material":1}]},{"name":"wood-platform","primitives":[{"attributes":{"POSITION":4,"NORMAL":5,"TEXCOORD_0":6},"indices":7,"material":0}]},{"name":"fabric-headboard","primitives":[{"attributes":{"POSITION":8,"NORMAL":9,"TEXCOORD_0":10},"indices":11,"material":1}]},{"name":"wood-left-rail","primitives":[{"attributes":{"POSITION":12,"NORMAL":13,"TEXCOORD_0":14},"indices":15,"material":0}]},{"name":"wood-right-rail","primitives":[{"attributes":{"POSITION":16,"NORMAL":17,"TEXCOORD_0":18},"indices":19,"material":0}]},{"name":"fabric-pillow-left","primitives":[{"attributes":{"POSITION":20,"NORMAL":21,"TEXCOORD_0":22},"indices":23,"material":1}]},{"name":"fabric-pillow-right","primitives":[{"attributes":{"POSITION":24,"NORMAL":25,"TEXCOORD_0":26},"indices":27,"material":1}]},{"name":"fabric-throw","primitives":[{"attributes":{"POSITION":28,"NORMAL":29,"TEXCOORD_0":30},"indices":31,"material":1}]}],"materials":[{"name":"wood","pbrMetallicRoughness":{"baseColorFactor":[1,1,1,1],"metallicFactor":0,"roughnessFactor":0.8}},{"name":"fabric","pbrMetallicRoughness":{"baseColorFactor":[1,1,1,1],"metallicFactor":0,"roughnessFactor":0.8}}],"buffers":[{"uri":"data:application/octet-stream;base64,","byteLength":6720}],"bufferViews":[{"buffer":0,"byteOffset":0,"byteLength":288},{"buffer":0,"byteOffset":288,"byteLength":288},{"buffer":0,"byteOffset":576,"byteLength":192},{"buffer":0,"byteOffset":768,"byteLength":72},{"buffer":0,"byteOffset":840,"byteLength":288},{"buffer":0,"byteOffset":1128,"byteLength":288},{"buffer":0,"byteOffset":1416,"byteLength":192},{"buffer":0,"byteOffset":1608,"byteLength":72},{"buffer":0,"byteOffset":1680,"byteLength":288},{"buffer":0,"byteOffset":1968,"byteLength":288},{"buffer":0,"byteOffset":2256,"byteLength":192},{"buffer":0,"byteOffset":2448,"byteLength":72},{"buffer":0,"byteOffset":2520,"byteLength":288},{"buffer":0,"byteOffset":2808,"byteLength":288},{"buffer":0,"byteOffset":3096,"byteLength":192},{"buffer":0,"byteOffset":3288,"byteLength":72},{"buffer":0,"byteOffset":3360,"byteLength":288},{"buffer":0,"byteOffset":3648,"byteLength":288},{"buffer":0,"byteOffset":3936,"byteLength":192},{"buffer":0,"byteOffset":4128,"byteLength":72},{"buffer":0,"byteOffset":4200,"byteLength":288},{"buffer":0,"byteOffset":4488,"byteLength":288},{"buffer":0,"byteOffset":4776,"byteLength":192},{"buffer":0,"byteOffset":4968,"byteLength":72},{"buffer":0,"byteOffset":5040,"byteLength":288},{"buffer":0,"byteOffset":5328,"byteLength":288},{"buffer":0,"byteOffset":5616,"byteLength":192},{"buffer":0,"byteOffset":5808,"byteLength":72},{"buffer":0,"byteOffset":5880,"byteLength":288},{"buffer":0,"byteOffset":6168,"byteLength":288},{"buffer":0,"byteOffset":6456,"byteLength":192},{"buffer":0,"byteOffset":6648,"byteLength":72}],"accessors":[{"bufferView":0,"componentType":5126,"count":24,"type":"VEC3","min":[-0.95,0.34,-0.975],"max":[0.95,0.56,0.975]},{"bufferView":1,"componentType":5126,"count":24,"type":"VEC3"},{"bufferView":2,"componentType":5126,"count":24,"type":"VEC2"},{"bufferView":3,"componentType":5123,"count":36,"type":"SCALAR"},{"bufferView":4,"componentType":5126,"count":24,"type":"VEC3","min":[-1.01,0.17000000000000004,-1.025],"max":[1.01,0.39,1.025]},{"bufferView":5,"componentType":5126,"count":24,"type":"VEC3"},{"bufferView":6,"componentType":5126,"count":24,"type":"VEC2"},{"bufferView":7,"componentType":5123,"count":36,"type":"SCALAR"},{"bufferView":8,"componentType":5126,"count":24,"type":"VEC3","min":[-1.05,0.20500000000000007,-1.11],"max":[1.05,1.355,-0.9500000000000001]},{"bufferView":9,"componentType":5126,"count":24,"type":"VEC3"},{"bufferView":10,"componentType":5126,"count":24,"type":"VEC2"},{"bufferView":11,"componentType":5123,"count":36,"type":"SCALAR"},{"bufferView":12,"componentType":5126,"count":24,"type":"VEC3","min":[-1.1,0.19,-1.04],"max":[-0.98,0.5700000000000001,1.04]},{"bufferView":13,"componentType":5126,"count":24,"type":"VEC3"},{"bufferView":14,"componentType":5126,"count":24,"type":"VEC2"},{"bufferView":15,"componentType":5123,"count":36,"type":"SCALAR"},{"bufferView":16,"componentType":5126,"count":24,"type":"VEC3","min":[0.98,0.19,-1.04],"max":[1.1,0.5700000000000001,1.04]},{"bufferView":17,"componentType":5126,"count":24,"type":"VEC3"},{"bufferView":18,"componentType":5126,"count":24,"type":"VEC2"},{"bufferView":19,"componentType":5123,"count":36,"type":"SCALAR"},{"bufferView":20,"componentType":5126,"count":24,"type":"VEC3","min":[-0.81,0.565,-0.81],"max":[-0.09000000000000002,0.6950000000000001,-0.43]},{"bufferView":21,"componentType":5126,"count":24,"type":"VEC3"},{"bufferView":22,"componentType":5126,"count":24,"type":"VEC2"},{"bufferView":23,"componentType":5123,"count":36,"type":"SCALAR"},{"bufferView":24,"componentType":5126,"count":24,"type":"VEC3","min":[0.09000000000000002,0.565,-0.81],"max":[0.81,0.6950000000000001,-0.43]},{"bufferView":25,"componentType":5126,"count":24,"type":"VEC3"},{"bufferView":26,"componentType":5126,"count":24,"type":"VEC2"},{"bufferView":27,"componentType":5123,"count":36,"type":"SCALAR"},{"bufferView":28,"componentType":5126,"count":24,"type":"VEC3","min":[-0.725,0.5875,0.020000000000000018],"max":[0.725,0.6325,0.74]},{"bufferView":29,"componentType":5126,"count":24,"type":"VEC3"},{"bufferView":30,"componentType":5126,"count":24,"type":"VEC2"},{"bufferView":31,"componentType":5123,"count":36,"type":"SCALAR"}]}