{"asset":{"version":"2.0","generator":"BuildWise procedural realistic furniture asset pack"},"scene":0,"scenes":[{"nodes":[0,1,2,3,4,5,6]}],"nodes":[{"name":"wood-body","mesh":0},{"name":"wood-drawer-1","mesh":1},{"name":"wood-drawer-2","mesh":2},{"name":"wood-drawer-3","mesh":3},{"name":"metal-handle-1","mesh":4},{"name":"metal-handle-2","mesh":5},{"name":"metal-handle-3","mesh":6}],"meshes":[{"name":"wood-body","primitives":[{"attributes":{"POSITION":0,"NORMAL":1,"TEXCOORD_0":2},"indices":3,"material":0}]},{"name":"wood-drawer-1","primitives":[{"attributes":{"POSITION":4,"NORMAL":5,"TEXCOORD_0":6},"indices":7,"material":0}]},{"name":"wood-drawer-2","primitives":[{"attributes":{"POSITION":8,"NORMAL":9,"TEXCOORD_0":10},"indices":11,"material":0}]},{"name":"wood-drawer-3","primitives":[{"attributes":{"POSITION":12,"NORMAL":13,"TEXCOORD_0":14},"indices":15,"material":0}]},{"name":"metal-handle-1","primitives":[{"attributes":{"POSITION":16,"NORMAL":17,"TEXCOORD_0":18},"indices":19,"material":1}]},{"name":"metal-handle-2","primitives":[{"attributes":{"POSITION":20,"NORMAL":21,"TEXCOORD_0":22},"indices":23,"material":1}]},{"name":"metal-handle-3","primitives":[{"attributes":{"POSITION":24,"NORMAL":25,"TEXCOORD_0":26},"indices":27,"material":1}]}],"materials":[{"name":"wood","pbrMetallicRoughness":{"baseColorFactor":[1,1,1,1],"metallicFactor":0,"roughnessFactor":0.8}},{"name":"metal","pbrMetallicRoughness":{"baseColorFactor":[1,1,1,1],"metallicFactor":0,"roughnessFactor":0.8}}],"buffers":[{"uri":"data:application/octet-stream;base64,","byteLength":5880}],"bufferViews":[{"buffer":0,"byteOffset":0,"byteLength":288},{"buffer":0,"byteOffset":288,"byteLength":288},{"buffer":0,"byteOffset":576,"byteLength":192},{"buffer":0,"byteOffset":768,"byteLength":72},{"buffer":0,"byteOffset":840,"byteLength":288},{"buffer":0,"byteOffset":1128,"byteLength":288},{"buffer":0,"byteOffset":1416,"byteLength":192},{"buffer":0,"byteOffset":1608,"byteLength":72},{"buffer":0,"byteOffset":1680,"byteLength":288},{"buffer":0,"byteOffset":1968,"byteLength":288},{"buffer":0,"byteOffset":2256,"byteLength":192},{"buffer":0,"byteOffset":2448,"byteLength":72},{"buffer":0,"byteOffset":2520,"byteLength":288},{"buffer":0,"byteOffset":2808,"byteLength":288},{"buffer":0,"byteOffset":3096,"byteLength":192},{"buffer":0,"byteOffset":3288,"byteLength":72},{"buffer":0,"byteOffset":3360,"byteLength":288},{"buffer":0,"byteOffset":3648,"byteLength":288},{"buffer":0,"byteOffset":3936,"byteLength":192},{"buffer":0,"byteOffset":4128,"byteLength":72},{"buffer":0,"byteOffset":4200,"byteLength":288},{"buffer":0,"byteOffset":4488,"byteLength":288},{"buffer":0,"byteOffset":4776,"byteLength":192},{"buffer":0,"byteOffset":4968,"byteLength":72},{"buffer":0,"byteOffset":5040,"byteLength":288},{"buffer":0,"byteOffset":5328,"byteLength":288},{"buffer":0,"byteOffset":5616,"byteLength":192},{"buffer":0,"byteOffset":5808,"byteLength":72}],"accessors":[{"bufferView":0,"componentType":5126,"count":24,"type":"VEC3","min":[-0.6,0.0,-0.21],"max":[0.6,0.72,0.21]},{"bufferView":1,"componentType":5126,"count":24,"type":"VEC3"},{"bufferView":2,"componentType":5126,"count":24,"type":"VEC2"},{"bufferView":3,"componentType":5123,"count":36,"type":"SCALAR"},{"bufferView":4,"componentType":5126,"count":24,"type":"VEC3","min":[-0.565,0.4,0.21250000000000002],"max":[-0.014999999999999958,0.62,0.2475]},{"bufferView":5,"componentType":5126,"count":24,"type":"VEC3"},{"bufferView":6,"componentType":5126,"count":24,"type":"VEC2"},{"bufferView":7,"componentType":5123,"count":36,"type":"SCALAR"},{"bufferView":8,"componentType":5126,"count":24,"type":"VEC3","min":[0.014999999999999958,0.4,0.21250000000000002],"max":[0.565,0.62,0.2475]},{"bufferView":9,"componentType":5126,"count":24,"type":"VEC3"},{"bufferView":10,"componentType":5126,"count":24,"type":"VEC2"},{"bufferView":11,"componentType":5123,"count":36,"type":"SCALAR"},{"bufferView":12,"componentType":5126,"count":24,"type":"VEC3","min":[-0.56,0.095,0.21250000000000002],"max":[0.56,0.345,0.2475]},{"bufferView":13,"componentType":5126,"count":24,"type":"VEC3"},{"bufferView":14,"componentType":5126,"count":24,"type":"VEC2"},{"bufferView":15,"componentType":5123,"count":36,"type":"SCALAR"},{"bufferView":16,"componentType":5126,"count":24,"type":"VEC3","min":[-0.42,0.5075000000000001,0.2425],"max":[-0.15999999999999998,0.5325,0.2775]},{"bufferView":17,"componentType":5126,"count":24,"type":"VEC3"},{"bufferView":18,"componentType":5126,"count":24,"type":"VEC2"},{"bufferView":19,"componentType":5123,"count":36,"type":"SCALAR"},{"bufferView":20,"componentType":5126,"count":24,"type":"VEC3","min":[0.15999999999999998,0.5075000000000001,0.2425],"max":[0.42,0.5325,0.2775]},{"bufferView":21,"componentType":5126,"count":24,"type":"VEC3"},{"bufferView":22,"componentType":5126,"count":24,"type":"VEC2"},{"bufferView":23,"componentType":5123,"count":36,"type":"SCALAR"},{"bufferView":24,"componentType":5126,"count":24,"type":"VEC3","min":[-0.21,0.2175,0.2425],"max":[0.21,0.24250000000000002,0.2775]},{"bufferView":25,"componentType":5126,"count":24,"type":"VEC3"},{"bufferView":26,"componentType":5126,"count":24,"type":"VEC2"},{"bufferView":27,"componentType":5123,"count":36,"type":"SCALAR"}]}