{"asset":{"version":"2.0","generator":"BuildWise procedural realistic furniture asset pack"},"scene":0,"scenes":[{"nodes":[0,1]}],"nodes":[{"name":"metal-frame","mesh":0},{"name":"canvas-art","mesh":1}],"meshes":[{"name":"metal-frame","primitives":[{"attributes":{"POSITION":0,"NORMAL":1,"TEXCOORD_0":2},"indices":3,"material":1}]},{"name":"canvas-art","primitives":[{"attributes":{"POSITION":4,"NORMAL":5,"TEXCOORD_0":6},"indices":7,"material":0}]}],"materials":[{"name":"fabric","pbrMetallicRoughness":{"baseColorFactor":[1,1,1,1],"metallicFactor":0,"roughnessFactor":0.8}},{"name":"metal","pbrMetallicRoughness":{"baseColorFactor":[1,1,1,1],"metallicFactor":0,"roughnessFactor":0.8}}],"buffers":[{"uri":"data:application/octet-stream;base64,","byteLength":1680}],"bufferViews":[{"buffer":0,"byteOffset":0,"byteLength":288},{"buffer":0,"byteOffset":288,"byteLength":288},{"buffer":0,"byteOffset":576,"byteLength":192},{"buffer":0,"byteOffset":768,"byteLength":72},{"buffer":0,"byteOffset":840,"byteLength":288},{"buffer":0,"byteOffset":1128,"byteLength":288},{"buffer":0,"byteOffset":1416,"byteLength":192},{"buffer":0,"byteOffset":1608,"byteLength":72}],"accessors":[{"bufferView":0,"componentType":5126,"count":24,"type":"VEC3","min":[-0.5,0.0,-0.025],"max":[0.5,0.72,0.025]},{"bufferView":1,"componentType":5126,"count":24,"type":"VEC3"},{"bufferView":2,"componentType":5126,"count":24,"type":"VEC2"},{"bufferView":3,"componentType":5123,"count":36,"type":"SCALAR"},{"bufferView":4,"componentType":5126,"count":24,"type":"VEC3","min":[-0.44,0.06,-0.0155],"max":[0.44,0.6599999999999999,0.0395]},{"bufferView":5,"componentType":5126,"count":24,"type":"VEC3"},{"bufferView":6,"componentType":5126,"count":24,"type":"VEC2"},{"bufferView":7,"componentType":5123,"count":36,"type":"SCALAR"}]}