{"asset":{"version":"2.0","generator":"BuildWise procedural realistic furniture asset pack"},"scene":0,"scenes":[{"nodes":[0,1,2,3]}],"nodes":[{"name":"metal-base","mesh":0},{"name":"metal-stem","mesh":1},{"name":"fabric-shade","mesh":2},{"name":"warm-diffuser","mesh":3}],"meshes":[{"name":"metal-base","primitives":[{"attributes":{"POSITION":0,"NORMAL":1,"TEXCOORD_0":2},"indices":3,"material":1}]},{"name":"metal-stem","primitives":[{"attributes":{"POSITION":4,"NORMAL":5,"TEXCOORD_0":6},"indices":7,"material":1}]},{"name":"fabric-shade","primitives":[{"attributes":{"POSITION":8,"NORMAL":9,"TEXCOORD_0":10},"indices":11,"material":0}]},{"name":"warm-diffuser","primitives":[{"attributes":{"POSITION":12,"NORMAL":13,"TEXCOORD_0":14},"indices":15,"material":2}]}],"materials":[{"name":"fabric","pbrMetallicRoughness":{"baseColorFactor":[1,1,1,1],"metallicFactor":0,"roughnessFactor":0.8}},{"name":"metal","pbrMetallicRoughness":{"baseColorFactor":[1,1,1,1],"metallicFactor":0,"roughnessFactor":0.8}},{"name":"emissive","pbrMetallicRoughness":{"baseColorFactor":[1,1,1,1],"metallicFactor":0,"roughnessFactor":0.8}}],"buffers":[{"uri":"data:application/octet-stream;base64,","byteLength":31616}],"bufferViews":[{"buffer":0,"byteOffset":0,"byteLength":2928},{"buffer":0,"byteOffset":2928,"byteLength":2928},{"buffer":0,"byteOffset":5856,"byteLength":1952},{"buffer":0,"byteOffset":7808,"byteLength":960},{"buffer":0,"byteOffset":8768,"byteLength":2352},{"buffer":0,"byteOffset":11120,"byteLength":2352},{"buffer":0,"byteOffset":13472,"byteLength":1568},{"buffer":0,"byteOffset":15040,"byteLength":768},{"buffer":0,"byteOffset":15808,"byteLength":2928},{"buffer":0,"byteOffset":18736,"byteLength":2928},{"buffer":0,"byteOffset":21664,"byteLength":1952},{"buffer":0,"byteOffset":23616,"byteLength":960},{"buffer":0,"byteOffset":24576,"byteLength":2352},{"buffer":0,"byteOffset":26928,"byteLength":2352},{"buffer":0,"byteOffset":29280,"byteLength":1568},{"buffer":0,"byteOffset":30848,"byteLength":768}],"accessors":[{"bufferView":0,"componentType":5126,"count":244,"type":"VEC3","min":[-0.18,0.0024999999999999988,-0.18],"max":[0.18,0.057499999999999996,0.18]},{"bufferView":1,"componentType":5126,"count":244,"type":"VEC3"},{"bufferView":2,"componentType":5126,"count":244,"type":"VEC2"},{"bufferView":3,"componentType":5123,"count":480,"type":"SCALAR"},{"bufferView":4,"componentType":5126,"count":196,"type":"VEC3","min":[-0.035,0.04999999999999999,-0.035],"max":[0.035,0.5700000000000001,0.035]},{"bufferView":5,"componentType":5126,"count":196,"type":"VEC3"},{"bufferView":6,"componentType":5126,"count":196,"type":"VEC2"},{"bufferView":7,"componentType":5123,"count":384,"type":"SCALAR"},{"bufferView":8,"componentType":5126,"count":244,"type":"VEC3","min":[-0.27599999999999997,0.53,-0.27599999999999997],"max":[0.27599999999999997,0.79,0.27599999999999997]},{"bufferView":9,"componentType":5126,"count":244,"type":"VEC3"},{"bufferView":10,"componentType":5126,"count":244,"type":"VEC2"},{"bufferView":11,"componentType":5123,"count":480,"type":"SCALAR"},{"bufferView":12,"componentType":5126,"count":196,"type":"VEC3","min":[-0.18,0.52,-0.18],"max":[0.18,0.54,0.18]},{"bufferView":13,"componentType":5126,"count":196,"type":"VEC3"},{"bufferView":14,"componentType":5126,"count":196,"type":"VEC2"},{"bufferView":15,"componentType":5123,"count":384,"type":"SCALAR"}]}