{"asset":{"version":"2.0","generator":"BuildWise procedural realistic furniture asset pack"},"scene":0,"scenes":[{"nodes":[0,1,2,3,4,5,6,7,8,9,10]}],"nodes":[{"name":"fabric-seat","mesh":0},{"name":"fabric-back","mesh":1},{"name":"fabric-left-arm","mesh":2},{"name":"fabric-right-arm","mesh":3},{"name":"fabric-cushion-1","mesh":4},{"name":"fabric-cushion-2","mesh":5},{"name":"fabric-cushion-3","mesh":6},{"name":"metal-leg-1","mesh":7},{"name":"metal-leg-2","mesh":8},{"name":"metal-leg-3","mesh":9},{"name":"metal-leg-4","mesh":10}],"meshes":[{"name":"fabric-seat","primitives":[{"attributes":{"POSITION":0,"NORMAL":1,"TEXCOORD_0":2},"indices":3,"material":1}]},{"name":"fabric-back","primitives":[{"attributes":{"POSITION":4,"NORMAL":5,"TEXCOORD_0":6},"indices":7,"material":1}]},{"name":"fabric-left-arm","primitives":[{"attributes":{"POSITION":8,"NORMAL":9,"TEXCOORD_0":10},"indices":11,"material":1}]},{"name":"fabric-right-arm","primitives":[{"attributes":{"POSITION":12,"NORMAL":13,"TEXCOORD_0":14},"indices":15,"material":1}]},{"name":"fabric-cushion-1","primitives":[{"attributes":{"POSITION":16,"NORMAL":17,"TEXCOORD_0":18},"indices":19,"material":1}]},{"name":"fabric-cushion-2","primitives":[{"attributes":{"POSITION":20,"NORMAL":21,"TEXCOORD_0":22},"indices":23,"material":1}]},{"name":"fabric-cushion-3","primitives":[{"attributes":{"POSITION":24,"NORMAL":25,"TEXCOORD_0":26},"indices":27,"material":1}]},{"name":"metal-leg-1","primitives":[{"attributes":{"POSITION":28,"NORMAL":29,"TEXCOORD_0":30},"indices":31,"material":2}]},{"name":"metal-leg-2","primitives":[{"attributes":{"POSITION":32,"NORMAL":33,"TEXCOORD_0":34},"indices":35,"material":2}]},{"name":"metal-leg-3","primitives":[{"attributes":{"POSITION":36,"NORMAL":37,"TEXCOORD_0":38},"indices":39,"material":2}]},{"name":"metal-leg-4","primitives":[{"attributes":{"POSITION":40,"NORMAL":41,"TEXCOORD_0":42},"indices":43,"material":2}]}],"materials":[{"name":"wood","pbrMetallicRoughness":{"baseColorFactor":[1,1,1,1],"metallicFactor":0,"roughnessFactor":0.8}},{"name":"fabric","pbrMetallicRoughness":{"baseColorFactor":[1,1,1,1],"metallicFactor":0,"roughnessFactor":0.8}},{"name":"metal","pbrMetallicRoughness":{"baseColorFactor":[1,1,1,1],"metallicFactor":0,"roughnessFactor":0.8}}],"buffers":[{"uri":"data:application/octet-stream;base64,","byteLength":9240}],"bufferViews":[{"buffer":0,"byteOffset":0,"byteLength":288},{"buffer":0,"byteOffset":288,"byteLength":288},{"buffer":0,"byteOffset":576,"byteLength":192},{"buffer":0,"byteOffset":768,"byteLength":72},{"buffer":0,"byteOffset":840,"byteLength":288},{"buffer":0,"byteOffset":1128,"byteLength":288},{"buffer":0,"byteOffset":1416,"byteLength":192},{"buffer":0,"byteOffset":1608,"byteLength":72},{"buffer":0,"byteOffset":1680,"byteLength":288},{"buffer":0,"byteOffset":1968,"byteLength":288},{"buffer":0,"byteOffset":2256,"byteLength":192},{"buffer":0,"byteOffset":2448,"byteLength":72},{"buffer":0,"byteOffset":2520,"byteLength":288},{"buffer":0,"byteOffset":2808,"byteLength":288},{"buffer":0,"byteOffset":3096,"byteLength":192},{"buffer":0,"byteOffset":3288,"byteLength":72},{"buffer":0,"byteOffset":3360,"byteLength":288},{"buffer":0,"byteOffset":3648,"byteLength":288},{"buffer":0,"byteOffset":3936,"byteLength":192},{"buffer":0,"byteOffset":4128,"byteLength":72},{"buffer":0,"byteOffset":4200,"byteLength":288},{"buffer":0,"byteOffset":4488,"byteLength":288},{"buffer":0,"byteOffset":4776,"byteLength":192},{"buffer":0,"byteOffset":4968,"byteLength":72},{"buffer":0,"byteOffset":5040,"byteLength":288},{"buffer":0,"byteOffset":5328,"byteLength":288},{"buffer":0,"byteOffset":5616,"byteLength":192},{"buffer":0,"byteOffset":5808,"byteLength":72},{"buffer":0,"byteOffset":5880,"byteLength":288},{"buffer":0,"byteOffset":6168,"byteLength":288},{"buffer":0,"byteOffset":6456,"byteLength":192},{"buffer":0,"byteOffset":6648,"byteLength":72},{"buffer":0,"byteOffset":6720,"byteLength":288},{"buffer":0,"byteOffset":7008,"byteLength":288},{"buffer":0,"byteOffset":7296,"byteLength":192},{"buffer":0,"byteOffset":7488,"byteLength":72},{"buffer":0,"byteOffset":7560,"byteLength":288},{"buffer":0,"byteOffset":7848,"byteLength":288},{"buffer":0,"byteOffset":8136,"byteLength":192},{"buffer":0,"byteOffset":8328,"byteLength":72},{"buffer":0,"byteOffset":8400,"byteLength":288},{"buffer":0,"byteOffset":8688,"byteLength":288},{"buffer":0,"byteOffset":8976,"byteLength":192},{"buffer":0,"byteOffset":9168,"byteLength":72}],"accessors":[{"bufferView":0,"componentType":5126,"count":24,"type":"VEC3","min":[-1.075,0.22,-0.41],"max":[1.075,0.54,0.41]},{"bufferView":1,"componentType":5126,"count":24,"type":"VEC3"},{"bufferView":2,"componentType":5126,"count":24,"type":"VEC2"},{"bufferView":3,"componentType":5123,"count":36,"type":"SCALAR"},{"bufferView":4,"componentType":5126,"count":24,"type":"VEC3","min":[-1.1,0.24000000000000005,-0.53],"max":[1.1,1.12,-0.31]},{"bufferView":5,"componentType":5126,"count":24,"type":"VEC3"},{"bufferView":6,"componentType":5126,"count":24,"type":"VEC2"},{"bufferView":7,"componentType":5123,"count":36,"type":"SCALAR"},{"bufferView":8,"componentType":5126,"count":24,"type":"VEC3","min":[-1.31,0.23000000000000004,-0.45],"max":[-1.0899999999999999,0.8500000000000001,0.45]},{"bufferView":9,"componentType":5126,"count":24,"type":"VEC3"},{"bufferView":10,"componentType":5126,"count":24,"type":"VEC2"},{"bufferView":11,"componentType":5123,"count":36,"type":"SCALAR"},{"bufferView":12,"componentType":5126,"count":24,"type":"VEC3","min":[1.0899999999999999,0.23000000000000004,-0.45],"max":[1.31,0.8500000000000001,0.45]},{"bufferView":13,"componentType":5126,"count":24,"type":"VEC3"},{"bufferView":14,"componentType":5126,"count":24,"type":"VEC2"},{"bufferView":15,"componentType":5123,"count":36,"type":"SCALAR"},{"bufferView":16,"componentType":5126,"count":24,"type":"VEC3","min":[-1.045,0.53,-0.25],"max":[-0.39499999999999996,0.71,0.41000000000000003]},{"bufferView":17,"componentType":5126,"count":24,"type":"VEC3"},{"bufferView":18,"componentType":5126,"count":24,"type":"VEC2"},{"bufferView":19,"componentType":5123,"count":36,"type":"SCALAR"},{"bufferView":20,"componentType":5126,"count":24,"type":"VEC3","min":[-0.325,0.53,-0.25],"max":[0.325,0.71,0.41000000000000003]},{"bufferView":21,"componentType":5126,"count":24,"type":"VEC3"},{"bufferView":22,"componentType":5126,"count":24,"type":"VEC2"},{"bufferView":23,"componentType":5123,"count":36,"type":"SCALAR"},{"bufferView":24,"componentType":5126,"count":24,"type":"VEC3","min":[0.39499999999999996,0.53,-0.25],"max":[1.045,0.71,0.41000000000000003]},{"bufferView":25,"componentType":5126,"count":24,"type":"VEC3"},{"bufferView":26,"componentType":5126,"count":24,"type":"VEC2"},{"bufferView":27,"componentType":5123,"count":36,"type":"SCALAR"},{"bufferView":28,"componentType":5126,"count":24,"type":"VEC3","min":[-0.99,0.0,0.30000000000000004],"max":[-0.9099999999999999,0.28,0.38]},{"bufferView":29,"componentType":5126,"count":24,"type":"VEC3"},{"bufferView":30,"componentType":5126,"count":24,"type":"VEC2"},{"bufferView":31,"componentType":5123,"count":36,"type":"SCALAR"},{"bufferView":32,"componentType":5126,"count":24,"type":"VEC3","min":[0.9099999999999999,0.0,0.30000000000000004],"max":[0.99,0.28,0.38]},{"bufferView":33,"componentType":5126,"count":24,"type":"VEC3"},{"bufferView":34,"componentType":5126,"count":24,"type":"VEC2"},{"bufferView":35,"componentType":5123,"count":36,"type":"SCALAR"},{"bufferView":36,"componentType":5126,"count":24,"type":"VEC3","min":[-0.99,0.0,-0.38],"max":[-0.9099999999999999,0.28,-0.30000000000000004]},{"bufferView":37,"componentType":5126,"count":24,"type":"VEC3"},{"bufferView":38,"componentType":5126,"count":24,"type":"VEC2"},{"bufferView":39,"componentType":5123,"count":36,"type":"SCALAR"},{"bufferView":40,"componentType":5126,"count":24,"type":"VEC3","min":[0.9099999999999999,0.0,-0.38],"max":[0.99,0.28,-0.30000000000000004]},{"bufferView":41,"componentType":5126,"count":24,"type":"VEC3"},{"bufferView":42,"componentType":5126,"count":24,"type":"VEC2"},{"bufferView":43,"componentType":5123,"count":36,"type":"SCALAR"}]}