{"asset":{"version":"2.0","generator":"BuildWise procedural realistic furniture asset pack"},"scene":0,"scenes":[{"nodes":[0,1,2,3,4]}],"nodes":[{"name":"wood-tabletop","mesh":0},{"name":"metal-leg-1","mesh":1},{"name":"metal-leg-2","mesh":2},{"name":"metal-leg-3","mesh":3},{"name":"metal-leg-4","mesh":4}],"meshes":[{"name":"wood-tabletop","primitives":[{"attributes":{"POSITION":0,"NORMAL":1,"TEXCOORD_0":2},"indices":3,"material":0}]},{"name":"metal-leg-1","primitives":[{"attributes":{"POSITION":4,"NORMAL":5,"TEXCOORD_0":6},"indices":7,"material":1}]},{"name":"metal-leg-2","primitives":[{"attributes":{"POSITION":8,"NORMAL":9,"TEXCOORD_0":10},"indices":11,"material":1}]},{"name":"metal-leg-3","primitives":[{"attributes":{"POSITION":12,"NORMAL":13,"TEXCOORD_0":14},"indices":15,"material":1}]},{"name":"metal-leg-4","primitives":[{"attributes":{"POSITION":16,"NORMAL":17,"TEXCOORD_0":18},"indices":19,"material":1}]}],"materials":[{"name":"wood","pbrMetallicRoughness":{"baseColorFactor":[1,1,1,1],"metallicFactor":0,"roughnessFactor":0.8}},{"name":"metal","pbrMetallicRoughness":{"baseColorFactor":[1,1,1,1],"metallicFactor":0,"roughnessFactor":0.8}}],"buffers":[{"uri":"data:application/octet-stream;base64,","byteLength":4200}],"bufferViews":[{"buffer":0,"byteOffset":0,"byteLength":288},{"buffer":0,"byteOffset":288,"byteLength":288},{"buffer":0,"byteOffset":576,"byteLength":192},{"buffer":0,"byteOffset":768,"byteLength":72},{"buffer":0,"byteOffset":840,"byteLength":288},{"buffer":0,"byteOffset":1128,"byteLength":288},{"buffer":0,"byteOffset":1416,"byteLength":192},{"buffer":0,"byteOffset":1608,"byteLength":72},{"buffer":0,"byteOffset":1680,"byteLength":288},{"buffer":0,"byteOffset":1968,"byteLength":288},{"buffer":0,"byteOffset":2256,"byteLength":192},{"buffer":0,"byteOffset":2448,"byteLength":72},{"buffer":0,"byteOffset":2520,"byteLength":288},{"buffer":0,"byteOffset":2808,"byteLength":288},{"buffer":0,"byteOffset":3096,"byteLength":192},{"buffer":0,"byteOffset":3288,"byteLength":72},{"buffer":0,"byteOffset":3360,"byteLength":288},{"buffer":0,"byteOffset":3648,"byteLength":288},{"buffer":0,"byteOffset":3936,"byteLength":192},{"buffer":0,"byteOffset":4128,"byteLength":72}],"accessors":[{"bufferView":0,"componentType":5126,"count":24,"type":"VEC3","min":[-0.575,0.6599999999999999,-0.325],"max":[0.575,0.78,0.325]},{"bufferView":1,"componentType":5126,"count":24,"type":"VEC3"},{"bufferView":2,"componentType":5126,"count":24,"type":"VEC2"},{"bufferView":3,"componentType":5123,"count":36,"type":"SCALAR"},{"bufferView":4,"componentType":5126,"count":24,"type":"VEC3","min":[-0.515,0.0,-0.28500000000000003],"max":[-0.44499999999999995,0.7,-0.215]},{"bufferView":5,"componentType":5126,"count":24,"type":"VEC3"},{"bufferView":6,"componentType":5126,"count":24,"type":"VEC2"},{"bufferView":7,"componentType":5123,"count":36,"type":"SCALAR"},{"bufferView":8,"componentType":5126,"count":24,"type":"VEC3","min":[0.44499999999999995,0.0,-0.28500000000000003],"max":[0.515,0.7,-0.215]},{"bufferView":9,"componentType":5126,"count":24,"type":"VEC3"},{"bufferView":10,"componentType":5126,"count":24,"type":"VEC2"},{"bufferView":11,"componentType":5123,"count":36,"type":"SCALAR"},{"bufferView":12,"componentType":5126,"count":24,"type":"VEC3","min":[-0.515,0.0,0.215],"max":[-0.44499999999999995,0.7,0.28500000000000003]},{"bufferView":13,"componentType":5126,"count":24,"type":"VEC3"},{"bufferView":14,"componentType":5126,"count":24,"type":"VEC2"},{"bufferView":15,"componentType":5123,"count":36,"type":"SCALAR"},{"bufferView":16,"componentType":5126,"count":24,"type":"VEC3","min":[0.44499999999999995,0.0,0.215],"max":[0.515,0.7,0.28500000000000003]},{"bufferView":17,"componentType":5126,"count":24,"type":"VEC3"},{"bufferView":18,"componentType":5126,"count":24,"type":"VEC2"},{"bufferView":19,"componentType":5123,"count":36,"type":"SCALAR"}]}